# File created by Blade
# Date/Time:  Wed Jan 21 14:43:55 2015
# Frame Rate: 120.000 fps
#------------------------------------------------------
:FULLY-SPECIFIED
:DEGREES
854
root 19.186788 35.559457 -20.747678 -170.843987 -0.604488 180.828669
Spine -17.074916 -3.281932 0.929357
Head 6.856616 1.059316 0.122631
LeftShoulder -7.021505 -42.104871 24.069395
LeftArm 14.643323 1.674130 -4.121144
LeftForeArm -14.545448 -0.000000 4.560248
LeftHand 2.170267 -0.000000 -11.020487
LeftHandThumb1 -26.253704 0.000000 33.147579
RightShoulder -7.785700 4.465956 -20.854659
RightArm 8.135923 48.591788 -2.598456
RightForeArm 3.182154 -0.000000 15.054751
RightHand 4.407190 0.000000 7.452702
RightHandThumb1 -24.326973 -0.000000 -32.862282
LeftUpLeg -1.224063 12.853078 1.546900
LeftLeg -7.009673 -0.000000 0.000000
LeftFoot -18.855305 26.510250 -14.181209
LeftToeBase 26.834687 -0.000000 -0.000000
RightUpLeg -2.238715 -8.934818 -1.389811
RightLeg -3.387452 -0.000000 0.000000
RightFoot -19.738278 -21.333913 17.480784
RightToeBase 24.935583 -0.000000 -0.000000
855
root 19.179652 35.561285 -20.756726 -170.805426 -0.543561 180.822757
Spine -17.247435 -3.055176 0.901063
Head 7.039676 0.904137 -0.160412
LeftShoulder -7.199323 -42.641892 24.631799
LeftArm 15.349449 1.028344 -3.744497
LeftForeArm -16.160315 -0.000000 5.064130
LeftHand 2.083920 -0.000000 -10.948132
LeftHandThumb1 -26.253704 0.000000 33.147579
RightShoulder -7.848524 5.193386 -21.764451
RightArm 8.336129 50.153745 -3.114168
RightForeArm 3.920038 -0.000000 16.040004
RightHand 4.405434 -0.000000 6.816964
RightHandThumb1 -24.326973 -0.000000 -32.862282
LeftUpLeg -1.227009 12.882364 1.519150
LeftLeg -7.030982 -0.000000 0.000000
LeftFoot -18.866607 26.509976 -14.251777
LeftToeBase 26.814086 -0.000000 -0.000000
RightUpLeg -2.286811 -8.916374 -1.406417
RightLeg -3.365408 -0.000000 0.000000
RightFoot -19.723607 -21.269591 17.593367
RightToeBase 24.778987 -0.000000 -0.000000
856
root 19.171742 35.563079 -20.766480 -170.783001 -0.489908 180.806537
Spine -17.400457 -2.804910 0.849138
Head 7.261807 0.744465 -0.453332
LeftShoulder -7.374604 -43.214752 25.218775
LeftArm 16.026704 0.258964 -3.482465
LeftForeArm -17.588429 0.000000 5.573252
LeftHand 2.233796 -0.000000 -11.017044
LeftHandThumb1 -26.253704 0.000000 33.147579
RightShoulder -7.877321 5.992397 -22.749104
RightArm 8.425571 51.789856 -3.492774
RightForeArm 4.327142 -0.000000 17.257833
RightHand 4.437881 -0.000000 6.447402
RightHandThumb1 -24.326973 -0.000000 -32.862282
LeftUpLeg -1.217906 12.924519 1.482785
LeftLeg -7.044445 -0.000000 0.000000
LeftFoot -18.880507 26.503595 -14.327417
LeftToeBase 26.783027 -0.000000 -0.000000
RightUpLeg -2.308223 -8.880432 -1.441152
RightLeg -3.344590 -0.000000 0.000000
RightFoot -19.741478 -21.262460 17.559928
RightToeBase 24.863329 -0.000000 -0.000000
857
root 19.165019 35.564723 -20.774452 -170.753460 -0.455644 180.785800
Spine -17.588676 -2.590981 0.788994
Head 7.597438 0.550577 -0.726986
LeftShoulder -7.555822 -43.665645 25.797867
LeftArm 16.766529 -0.606036 -3.301427
LeftForeArm -19.208830 -0.000000 6.151314
LeftHand 2.276001 -0.000000 -10.930615
LeftHandThumb1 -26.253704 0.000000 33.147579
RightShoulder -7.842274 6.629060 -23.602214
RightArm 8.577734 53.283604 -4.045444
RightForeArm 5.143663 -0.000000 18.291351
RightHand 4.552912 -0.000000 5.600364
RightHandThumb1 -24.326973 -0.000000 -32.862282
LeftUpLeg -1.225339 12.916245 1.448426
LeftLeg -7.049062 -0.000000 0.000000
LeftFoot -18.890939 26.516149 -14.390612
LeftToeBase 26.770382 -0.000000 -0.000000
RightUpLeg -2.334592 -8.858642 -1.471276
RightLeg -3.338172 -0.000000 0.000000
RightFoot -19.743563 -21.279721 17.579222
RightToeBase 24.847827 -0.000000 -0.000000
858
root 19.157062 35.565870 -20.782393 -170.713203 -0.445602 180.764779
Spine -17.777821 -2.365809 0.749048
Head 7.877038 0.439397 -0.972037
LeftShoulder -7.730168 -44.232426 26.391178
LeftArm 17.453053 -1.456446 -3.238295
LeftForeArm -20.776607 -0.000000 6.785093
LeftHand 2.090247 -0.000000 -10.612082
LeftHandThumb1 -26.253704 0.000000 33.147579
RightShoulder -7.835229 7.336653 -24.530795
RightArm 8.726131 54.811681 -4.446727
RightForeArm 5.859939 -0.000000 19.566067
RightHand 4.811253 -0.000000 5.111998
RightHandThumb1 -24.326973 -0.000000 -32.862282
LeftUpLeg -1.250072 12.898456 1.408971
LeftLeg -7.049042 -0.000000 0.000000
LeftFoot -18.889868 26.522607 -14.419755
LeftToeBase 26.718759 -0.000000 -0.000000
RightUpLeg -2.371420 -8.880053 -1.499724
RightLeg -3.322302 -0.000000 0.000000
RightFoot -19.748919 -21.243600 17.578137
RightToeBase 24.896802 -0.000000 -0.000000
859
root 19.150423 35.566640 -20.789022 -170.667425 -0.439608 180.747122
Spine -17.968180 -2.173525 0.710632
Head 8.192485 0.334305 -1.220663
LeftShoulder -7.966453 -44.719758 27.033225
LeftArm 18.184589 -2.564467 -3.292217
LeftForeArm -22.239752 -0.000000 7.390791
LeftHand 1.987309 -0.000000 -10.583509
LeftHandThumb1 -26.253704 0.000000 33.147579
RightShoulder -7.771064 8.079569 -25.387339
RightArm 8.903428 56.373608 -4.868377
RightForeArm 6.326398 -0.000000 20.924204
RightHand 4.997820 0.000000 4.845893
RightHandThumb1 -24.326973 -0.000000 -32.862282
LeftUpLeg -1.291566 12.906389 1.372963
LeftLeg -7.035306 -0.000000 0.000000
LeftFoot -18.893533 26.507851 -14.443547
LeftToeBase 26.691126 -0.000000 -0.000000
RightUpLeg -2.406927 -8.865780 -1.522454
RightLeg -3.321708 -0.000000 0.000000
RightFoot -19.756927 -21.247135 17.610380
RightToeBase 24.840649 -0.000000 -0.000000
860
root 19.142777 35.566644 -20.796146 -170.603593 -0.450293 180.719189
Spine -18.169549 -1.955956 0.649981
Head 8.496314 0.062818 -1.486605
LeftShoulder -8.258823 -45.191869 27.694994
LeftArm 19.012210 -3.611092 -3.465501
LeftForeArm -23.509766 -0.000000 8.068331
LeftHand 1.827501 0.000000 -10.141195
LeftHandThumb1 -26.253704 0.000000 33.147579
RightShoulder -7.803057 8.730751 -26.215769
RightArm 9.278874 58.006534 -5.116870
RightForeArm 7.140791 -0.000000 22.340862
RightHand 5.240100 -0.000000 4.357770
RightHandThumb1 -24.326973 -0.000000 -32.862282
LeftUpLeg -1.354203 12.904536 1.323514
LeftLeg -7.023481 -0.000000 0.000000
LeftFoot -18.903805 26.476271 -14.470663
LeftToeBase 26.692554 -0.000000 -0.000000
RightUpLeg -2.462992 -8.885790 -1.552291
RightLeg -3.310815 -0.000000 0.000000
RightFoot -19.782619 -21.237850 17.610200
RightToeBase 24.862586 -0.000000 -0.000000
